<svg width="53" height="46" viewBox="0 0 53 46" fill="none" xmlns="http://www.w3.org/2000/svg">
<path d="M0 4.44566C0 2.38285 1.66839 0.709961 3.72565 0.709961H48.4334C50.4942 0.709961 52.1591 2.38285 52.1591 4.44566C52.1591 6.51197 50.4942 8.18136 48.4334 8.18136H3.72565C1.66839 8.18136 0 6.51197 0 4.44566ZM0 23.1241C0 21.0578 1.66839 19.3885 3.72565 19.3885H48.4334C50.4942 19.3885 52.1591 21.0578 52.1591 23.1241C52.1591 25.1905 50.4942 26.8598 48.4334 26.8598H3.72565C1.66839 26.8598 0 25.1905 0 23.1241ZM48.4334 45.5383H3.72565C1.66839 45.5383 0 43.8689 0 41.8026C0 39.7363 1.66839 38.0669 3.72565 38.0669H48.4334C50.4942 38.0669 52.1591 39.7363 52.1591 41.8026C52.1591 43.8689 50.4942 45.5383 48.4334 45.5383Z" fill="#1D1D1B"/>
</svg>
