<svg width="173" height="77" viewBox="0 0 173 77" fill="none" xmlns="http://www.w3.org/2000/svg">
<g clip-path="url(#clip0_1475_256)">
<rect width="173" height="76.0879" fill="white"/>
<path d="M8.42557 76.0878C7.16413 76.0878 6.09445 75.7972 5.21354 75.2099C4.57533 74.7874 4.07795 74.2511 3.71839 73.5979C3.48468 73.1754 3.65547 72.6361 4.06596 72.3934L4.38956 72.2016C4.80305 71.9559 5.33939 72.0817 5.59407 72.4952C6.19333 73.466 7.15514 73.9514 8.4795 73.9514C9.2915 73.9514 9.89975 73.7896 10.3042 73.466C10.7087 73.1424 10.9125 72.72 10.9125 72.1986C10.9125 71.6533 10.6938 71.2368 10.2593 70.9491C9.82184 70.6645 9.0488 70.3499 7.93718 70.0053C7.31395 69.8136 6.80757 69.6368 6.42105 69.472C6.03453 69.3072 5.62703 69.0765 5.19557 68.7768C4.7641 68.4772 4.4435 68.1057 4.23076 67.6622C4.01802 67.2188 3.91315 66.6974 3.91315 66.1011C3.91315 64.9176 4.32664 63.9828 5.14763 63.2906C5.97161 62.5985 6.96338 62.2539 8.12295 62.2539C9.17165 62.2539 10.0885 62.5146 10.8735 63.0359C11.4039 63.3865 11.8533 63.83 12.2189 64.3603C12.5125 64.7888 12.3567 65.385 11.9103 65.6487L11.6466 65.8045C11.2631 66.0322 10.7537 65.9513 10.496 65.5828C9.9387 64.7888 9.14768 64.3903 8.11995 64.3903C7.49672 64.3903 6.99634 64.5401 6.6218 64.8367C6.24727 65.1363 6.0615 65.5378 6.0615 66.0472C6.0615 66.5566 6.25026 66.9341 6.63379 67.2188C7.01432 67.5064 7.70346 67.806 8.70123 68.1236C9.20161 68.2884 9.56416 68.4143 9.79787 68.4952C10.0286 68.5761 10.3522 68.7079 10.7717 68.8847C11.1882 69.0615 11.5058 69.2413 11.7155 69.418C11.8773 69.5529 12.0481 69.7147 12.2309 69.9034C12.6024 70.293 12.8871 70.7754 12.9889 71.3087C13.0399 71.5694 13.0638 71.854 13.0638 72.1597C13.0638 73.3672 12.6354 74.323 11.7814 75.0271C10.9275 75.7312 9.80686 76.0848 8.42257 76.0848" fill="#1D1D1B"/>
<path d="M28.6625 62.4998H29.0191C29.5165 62.4998 29.918 62.9102 29.918 63.4136V74.9254C29.918 75.4318 29.5165 75.8393 29.0191 75.8393H28.6625C28.1652 75.8393 27.7637 75.4288 27.7637 74.9254V70.9793C27.7637 70.4729 27.3621 70.0654 26.8648 70.0654H23.0475C22.5501 70.0654 22.1486 70.4759 22.1486 70.9793V74.9254C22.1486 75.4318 21.7471 75.8393 21.2497 75.8393H20.8932C20.3958 75.8393 19.9943 75.4288 19.9943 74.9254V63.4136C19.9943 62.9102 20.3958 62.4998 20.8932 62.4998H21.2497C21.7471 62.4998 22.1486 62.9102 22.1486 63.4136V67.0541C22.1486 67.5605 22.5501 67.968 23.0475 67.968H26.8648C27.3621 67.968 27.7637 67.5575 27.7637 67.0541V63.4136C27.7637 62.9102 28.1652 62.4998 28.6625 62.4998Z" fill="#1D1D1B"/>
<path d="M48.4621 74.0773C47.1437 75.4167 45.5377 76.0879 43.641 76.0879C41.7444 76.0879 40.1384 75.4167 38.82 74.0773C37.5016 72.738 36.8454 71.102 36.8454 69.1694C36.8454 67.2368 37.5046 65.6038 38.82 64.2615C40.1354 62.9221 41.7444 62.251 43.641 62.251C45.5377 62.251 47.1437 62.9221 48.4621 64.2615C49.7774 65.6008 50.4366 67.2368 50.4366 69.1694C50.4366 71.102 49.7774 72.738 48.4621 74.0773ZM40.3391 72.5912C41.232 73.4991 42.3316 73.9545 43.644 73.9545C44.9564 73.9545 46.056 73.4991 46.9489 72.5912C47.8418 71.6833 48.2883 70.5417 48.2883 69.1694C48.2883 67.7971 47.8418 66.6585 46.9489 65.7477C46.056 64.8398 44.9564 64.3843 43.644 64.3843C42.3316 64.3843 41.232 64.8398 40.3391 65.7477C39.4462 66.6555 38.9998 67.7971 38.9998 69.1694C38.9998 70.5417 39.4462 71.6833 40.3391 72.5912Z" fill="#1D1D1B"/>
<path d="M62.1941 62.5386C63.4285 62.5386 64.4623 62.9581 65.2922 63.797C66.1222 64.636 66.5357 65.6757 66.5357 66.9222C66.5357 68.1686 66.1192 69.1933 65.2922 70.0383C64.4623 70.8833 63.4285 71.3057 62.1941 71.3057H60.4143C59.9169 71.3057 59.5154 71.7162 59.5154 72.2196V74.9642C59.5154 75.4706 59.1139 75.8781 58.6165 75.8781H58.2599C57.7625 75.8781 57.361 75.4676 57.361 74.9642V63.4524C57.361 62.9491 57.7625 62.5386 58.2599 62.5386H62.1911H62.1941ZM62.1941 69.2473C62.8293 69.2473 63.3536 69.0285 63.7671 68.5911C64.1806 68.1536 64.3844 67.5963 64.3844 66.9251C64.3844 66.254 64.1776 65.6967 63.7671 65.2562C63.3566 64.8188 62.8323 64.6 62.1941 64.6H60.4143C59.9169 64.6 59.5154 65.0105 59.5154 65.5139V68.3334C59.5154 68.8368 59.9169 69.2473 60.4143 69.2473H62.1941Z" fill="#1D1D1B"/>
<path d="M80.2437 64.597H76.5193C76.022 64.597 75.6205 65.0075 75.6205 65.5109V67.4165C75.6205 67.9229 76.022 68.3304 76.5193 68.3304H80.058C80.5554 68.3304 80.9569 68.7409 80.9569 69.2442V69.5109C80.9569 70.0173 80.5554 70.4248 80.058 70.4248H76.5193C76.022 70.4248 75.6205 70.8353 75.6205 71.3386V74.9222C75.6205 75.4286 75.219 75.8361 74.7216 75.8361H74.365C73.8676 75.8361 73.4661 75.4256 73.4661 74.9222V63.4105C73.4661 62.9041 73.8676 62.4966 74.365 62.4966H80.2437C80.7411 62.4966 81.1426 62.9071 81.1426 63.4105V63.6771C81.1426 64.1805 80.7411 64.591 80.2437 64.591" fill="#1D1D1B"/>
<path d="M88.9719 62.4998H89.3285C89.8259 62.4998 90.2274 62.9102 90.2274 63.4136V74.9254C90.2274 75.4318 89.8259 75.8393 89.3285 75.8393H88.9719C88.4746 75.8393 88.0731 75.4288 88.0731 74.9254V63.4136C88.0731 62.9102 88.4746 62.4998 88.9719 62.4998Z" fill="#1D1D1B"/>
<path d="M106.701 63.4166V63.6832C106.701 64.1866 106.3 64.5971 105.802 64.5971H103.911C103.414 64.5971 103.013 65.0076 103.013 65.511V74.9253C103.013 75.4317 102.611 75.8392 102.114 75.8392H101.757C101.26 75.8392 100.858 75.4287 100.858 74.9253V65.511C100.858 65.0046 100.457 64.5971 99.9594 64.5971H98.0507C97.5533 64.5971 97.1518 64.1866 97.1518 63.6832V63.4166C97.1518 62.9102 97.5533 62.5027 98.0507 62.5027H105.799C106.297 62.5027 106.698 62.9132 106.698 63.4166" fill="#1D1D1B"/>
<path d="M123.178 63.4166V63.6832C123.178 64.1866 122.776 64.5971 122.279 64.5971H120.388C119.891 64.5971 119.489 65.0076 119.489 65.511V74.9253C119.489 75.4317 119.088 75.8392 118.59 75.8392H118.234C117.736 75.8392 117.335 75.4287 117.335 74.9253V65.511C117.335 65.0046 116.933 64.5971 116.436 64.5971H114.527C114.03 64.5971 113.628 64.1866 113.628 63.6832V63.4166C113.628 62.9102 114.03 62.5027 114.527 62.5027H122.276C122.773 62.5027 123.175 62.9132 123.175 63.4166" fill="#1D1D1B"/>
<path d="M131.004 62.4998H131.36C131.858 62.4998 132.259 62.9102 132.259 63.4136V74.9254C132.259 75.4318 131.858 75.8393 131.36 75.8393H131.004C130.507 75.8393 130.105 75.4288 130.105 74.9254V63.4136C130.105 62.9102 130.507 62.4998 131.004 62.4998Z" fill="#1D1D1B"/>
<path d="M147.948 62.4998H148.305C148.802 62.4998 149.203 62.9102 149.203 63.4136V74.9254C149.203 75.4318 148.802 75.8393 148.305 75.8393H147.987C147.693 75.8393 147.418 75.6924 147.25 75.4467L142.977 69.1845C142.474 68.4474 141.341 68.81 141.341 69.7058V74.9254C141.341 75.4318 140.94 75.8393 140.442 75.8393H140.086C139.588 75.8393 139.187 75.4288 139.187 74.9254V63.4136C139.187 62.9102 139.588 62.4998 140.086 62.4998H140.403C140.697 62.4998 140.973 62.6466 141.14 62.8923L145.413 69.1545C145.917 69.8916 147.049 69.5291 147.049 68.6332V63.4166C147.049 62.9132 147.451 62.5028 147.948 62.5028" fill="#1D1D1B"/>
<path d="M168.637 68.9417C169.135 68.9417 169.536 69.3522 169.536 69.8556C169.536 71.6863 168.943 73.1815 167.759 74.344C166.573 75.5066 165.027 76.0879 163.118 76.0879C161.096 76.0879 159.427 75.4197 158.111 74.0863C156.793 72.753 156.137 71.114 156.137 69.1694C156.137 67.2248 156.793 65.6038 158.111 64.2615C159.427 62.9221 161.06 62.251 163.007 62.251C164.23 62.251 165.347 62.5356 166.357 63.1079C167.049 63.4974 167.634 63.9798 168.113 64.5551C168.47 64.9806 168.332 65.6368 167.855 65.9154L167.583 66.0743C167.214 66.29 166.732 66.2331 166.456 65.9035C166.147 65.5349 165.764 65.2203 165.309 64.9626C164.622 64.5761 163.855 64.3813 163.007 64.3813C161.635 64.3813 160.505 64.8398 159.619 65.7536C158.732 66.6675 158.291 67.8121 158.291 69.1844C158.291 70.5567 158.738 71.6953 159.631 72.5972C160.523 73.4991 161.692 73.9485 163.139 73.9485C164.299 73.9485 165.246 73.6728 165.974 73.1185C166.258 72.9028 166.501 72.6601 166.708 72.3874C167.166 71.7762 166.759 70.8983 166.004 70.8983H163.888C163.391 70.8983 162.989 70.4878 162.989 69.9844V69.8496C162.989 69.3462 163.391 68.9357 163.888 68.9357H168.643L168.637 68.9417Z" fill="#1D1D1B"/>
<path d="M145.218 0H130.333C127.322 0 124.883 2.43299 124.883 5.43827V49.9872C124.883 52.9895 127.322 55.4254 130.333 55.4254H145.218C160.535 55.4254 173 42.9938 173 27.7127C173 12.4316 160.538 0 145.218 0Z" fill="#1D1D1B"/>
<path d="M43.0537 35.5362L9.25555 1.69601C8.21883 0.659295 6.83155 0.10498 5.4203 0.10498C4.72216 0.10498 4.01803 0.239814 3.34686 0.518469C1.32137 1.36043 0 3.33798 0 5.53426V50.0082C0 53.0045 2.427 55.4345 5.4203 55.4345H49.8374C52.0306 55.4345 54.0082 54.1132 54.8472 52.0847C55.6861 50.0562 55.2217 47.7221 53.6726 46.17L43.0537 35.5392V35.5362Z" fill="#1D1D1B"/>
<path d="M95.0964 3.00528C94.1735 1.16256 92.2918 0 90.2304 0C88.1689 0 86.2873 1.16256 85.3644 3.00528L63.084 47.5662C62.242 49.2501 62.3319 51.2546 63.3207 52.8576C64.3124 54.4606 66.0623 55.4374 67.9469 55.4374H112.508C114.392 55.4374 116.145 54.4606 117.134 52.8576C118.126 51.2546 118.216 49.2531 117.371 47.5662L95.0964 3.00528Z" fill="#1D1D1B"/>
</g>
<defs>
<clipPath id="clip0_1475_256">
<rect width="173" height="76.0879" fill="white"/>
</clipPath>
</defs>
</svg>
