<svg width="58" height="58" viewBox="0 0 58 58" fill="none" xmlns="http://www.w3.org/2000/svg">
<circle cx="29" cy="29" r="29" fill="#BA1E1B"/>
<path d="M26.3056 28.3057C28.4035 27.3376 29.4986 25.8726 29.4986 23.5924C29.4986 19.0955 26.0285 18 22.024 18H11V40.5732H22.334C26.5826 40.5732 30.574 38.6051 30.574 34.0191C30.574 31.1847 29.1819 29.0892 26.3056 28.3057ZM16.1392 21.8535H20.9618C22.8156 21.8535 24.4847 22.3567 24.4847 24.4331C24.4847 26.3503 23.1851 27.121 21.351 27.121H16.1392V21.8535ZM21.6347 36.7389H16.1392V30.5223H21.7403C24.0031 30.5223 25.4347 31.4331 25.4347 33.7452C25.4347 36.0573 23.726 36.7389 21.6347 36.7389ZM45.2858 21.4076H35.8056V19.1847H45.2858V21.4076ZM49 32.6369C49 27.8025 46.0708 23.7707 40.7601 23.7707C35.4493 23.7707 32.0979 27.5159 32.0979 32.4204C32.0979 37.3248 35.4163 41 40.7601 41C44.8042 41 47.4233 39.242 48.6833 35.5032H44.5799C44.1378 36.8981 42.317 37.6369 40.9052 37.6369C38.1806 37.6369 36.749 36.0955 36.749 33.4777H48.9604C48.9802 33.2102 49 32.9236 49 32.6369ZM36.7556 30.6497C36.9073 28.5032 38.3851 27.1592 40.6149 27.1592C42.8448 27.1592 44.1247 28.4841 44.3226 30.6497H36.7556Z" fill="white"/>
</svg>
