<svg width="57" height="58" viewBox="0 0 57 58" fill="none" xmlns="http://www.w3.org/2000/svg">
<ellipse cx="28.5" cy="29" rx="28.5" ry="29" fill="#BA1E1B"/>
<path d="M38.9891 19.1697C38.5875 23.5614 36.8484 34.221 35.9632 39.1403C35.5885 41.2214 34.8519 41.9203 34.138 41.9875C32.5873 42.1365 31.4093 40.9212 29.9071 39.8975C27.5563 38.2947 26.2286 37.2978 23.9468 35.7331C21.3096 33.9254 23.0196 32.933 24.5218 31.3089C24.9149 30.8844 31.7485 24.4194 31.8809 23.8325C31.8971 23.7597 31.9132 23.4853 31.7571 23.3419C31.6009 23.1985 31.3705 23.2467 31.2036 23.2859C30.9678 23.3419 27.2128 25.9225 19.9388 31.03C18.8727 31.7916 17.9079 32.1624 17.0432 32.1422C16.0902 32.1209 14.2552 31.5811 12.8919 31.1207C11.2196 30.5562 9.89079 30.2572 10.0071 29.2973C10.0674 28.7966 10.7297 28.2859 11.9939 27.7628C19.7794 24.2346 24.9708 21.9082 27.5682 20.7848C34.9844 17.5758 36.5253 17.0192 37.5289 17.0001C37.7497 16.9968 38.244 17.0528 38.5638 17.3227C38.777 17.5154 38.9127 17.7831 38.9439 18.0754C38.9978 18.4372 39.0128 18.8046 38.9891 19.1697Z" fill="white"/>
</svg>
